<svg version="1.1" id="Layer_1" xmlns="http://www.w3.org/2000/svg" xmlns:xlink="http://www.w3.org/1999/xlink" x="0px" y="0px"
	 width="100%" viewBox="0 0 519 485" enable-background="new 0 0 519 485" xml:space="preserve">
<path fill="#000000" opacity="1.000000" stroke="none" 
	d="
M1.000000,179.000000 
	C1.000000,119.348061 1.000000,60.196114 1.000000,1.022085 
	C173.942215,1.022085 346.884430,1.022085 519.913330,1.022085 
	C519.913330,162.568619 519.913330,324.137299 519.913330,485.852997 
	C347.000092,485.852997 174.000061,485.852997 1.000000,485.852997 
	C1.000000,383.782196 1.000000,281.641083 1.000000,179.000000 
M32.550327,473.121460 
	C32.423161,473.436890 32.295994,473.752319 32.628704,474.765778 
	C34.454227,474.843933 36.279728,474.989716 38.105270,474.990265 
	C80.266571,475.003082 122.428314,475.121552 164.589081,474.971710 
	C227.513412,474.748077 290.438080,474.443237 353.359680,473.859528 
	C361.142822,473.787354 369.065338,472.438599 376.652191,470.576843 
	C399.023987,465.087097 419.837891,456.084778 438.507263,442.252808 
	C460.130920,426.232086 477.462921,406.649872 490.055084,382.839630 
	C500.818787,362.486755 507.123199,340.716553 508.780426,317.923950 
	C510.239288,297.860352 509.151489,277.844208 502.289520,258.428558 
	C495.033508,237.898010 484.909149,219.163788 471.611816,201.898117 
	C459.753204,186.500580 446.076385,173.186981 430.362213,161.888947 
	C419.719391,154.237061 408.426544,147.760910 396.301270,143.124664 
	C396.816895,142.303375 397.287506,141.449478 397.854858,140.665619 
	C409.918640,123.998573 421.955688,107.311996 434.076019,90.686127 
	C447.074219,72.856026 460.205536,55.122791 473.165100,37.264797 
	C477.238892,31.651178 480.945557,25.771135 485.070496,19.399395 
	C484.055389,18.983326 483.040283,18.567255 481.094391,18.007322 
	C379.387543,17.997574 277.680725,17.987324 175.973877,17.985327 
	C174.978989,17.985308 173.984085,18.094727 172.360794,18.038504 
	C171.870758,18.347265 171.380737,18.656027 169.980515,18.993858 
	C165.385712,19.328859 160.781677,19.569292 156.197739,20.015841 
	C139.631668,21.629639 124.050323,26.766218 108.965607,33.537041 
	C84.787590,44.389423 64.595695,60.357826 47.653378,80.729500 
	C34.645271,96.370621 24.692879,113.667152 18.042503,132.793457 
	C11.986593,150.210098 8.165854,168.142151 9.059940,186.728760 
	C9.596828,197.889832 9.559818,209.264389 11.818445,220.118988 
	C16.894920,244.515671 27.904203,266.357239 42.650806,286.528412 
	C52.757046,300.352264 64.190140,312.802795 77.329666,323.577515 
	C90.840942,334.657074 105.779503,343.624237 121.869713,350.605682 
	C114.659210,360.485260 107.454102,370.368774 100.237099,380.243622 
	C84.815071,401.345215 69.349991,422.415497 53.977623,443.553192 
	C46.873466,453.321747 39.945312,463.218292 33.056297,473.056274 
	C33.056297,473.056274 33.063393,472.937531 32.550327,473.121460 
z"/>
<path fill="#0233F2" opacity="1.000000" stroke="none" 
	d="
M395.894775,143.653702 
	C408.426544,147.760910 419.719391,154.237061 430.362213,161.888947 
	C446.076385,173.186981 459.753204,186.500580 471.611816,201.898117 
	C484.909149,219.163788 495.033508,237.898010 502.289520,258.428558 
	C509.151489,277.844208 510.239288,297.860352 508.780426,317.923950 
	C507.123199,340.716553 500.818787,362.486755 490.055084,382.839630 
	C477.462921,406.649872 460.130920,426.232086 438.507263,442.252808 
	C419.837891,456.084778 399.023987,465.087097 376.652191,470.576843 
	C369.065338,472.438599 361.142822,473.787354 353.359680,473.859528 
	C290.438080,474.443237 227.513412,474.748077 164.589081,474.971710 
	C122.428314,475.121552 80.266571,475.003082 38.105270,474.990265 
	C36.279728,474.989716 34.454227,474.843933 32.689674,474.318237 
	C32.854889,473.559662 32.959133,473.248596 33.063385,472.937531 
	C33.063393,472.937531 33.056297,473.056274 33.348442,473.241455 
	C35.148918,472.729675 36.685005,472.086700 38.161598,471.327972 
	C146.803116,415.503479 255.440292,359.670563 364.072174,303.827393 
	C365.336456,303.177460 366.527252,302.384521 368.251617,301.362427 
	C346.554230,290.439819 325.373932,279.777527 304.167419,269.102020 
	C304.739716,268.052338 304.933105,267.580902 305.224213,267.180450 
	C334.503357,226.905960 363.785736,186.633835 393.099030,146.384216 
	C393.855164,145.346008 394.955139,144.558258 395.894775,143.653702 
z"/>
<path fill="#0233F2" opacity="1.000000" stroke="none" 
	d="
M122.167953,349.971466 
	C105.779503,343.624237 90.840942,334.657074 77.329666,323.577515 
	C64.190140,312.802795 52.757046,300.352264 42.650806,286.528412 
	C27.904203,266.357239 16.894920,244.515671 11.818445,220.118988 
	C9.559818,209.264389 9.596828,197.889832 9.059940,186.728760 
	C8.165854,168.142151 11.986593,150.210098 18.042503,132.793457 
	C24.692879,113.667152 34.645271,96.370621 47.653378,80.729500 
	C64.595695,60.357826 84.787590,44.389423 108.965607,33.537041 
	C124.050323,26.766218 139.631668,21.629639 156.197739,20.015841 
	C160.781677,19.569292 165.385712,19.328859 170.711151,18.914755 
	C171.957596,18.608120 172.473389,18.380589 172.989197,18.153055 
	C173.984085,18.094727 174.978989,17.985308 175.973877,17.985327 
	C277.680725,17.987324 379.387543,17.997574 481.682617,18.306274 
	C482.513367,19.060719 482.755859,19.516209 482.780090,20.237377 
	C361.359100,87.165199 240.156342,153.827347 118.038849,220.992599 
	C142.713898,233.460052 166.350250,245.402695 190.251190,257.479004 
	C189.039322,259.212097 188.211563,260.441803 187.338135,261.638123 
	C171.436020,283.419830 155.565186,305.224548 139.602264,326.961609 
	C133.907043,334.716919 127.985939,342.306335 122.167953,349.971466 
z"/>
<path fill="#21E36A" opacity="1.000000" stroke="none" 
	d="
M122.018837,350.288574 
	C127.985939,342.306335 133.907043,334.716919 139.602264,326.961609 
	C155.565186,305.224548 171.436020,283.419830 187.338135,261.638123 
	C188.211563,260.441803 189.039322,259.212097 190.251190,257.479004 
	C166.350250,245.402695 142.713898,233.460052 118.038849,220.992599 
	C240.156342,153.827347 361.359100,87.165199 483.083435,20.251465 
	C484.010101,20.004265 484.415192,20.008652 484.820251,20.013035 
	C480.945557,25.771135 477.238892,31.651178 473.165100,37.264797 
	C460.205536,55.122791 447.074219,72.856026 434.076019,90.686127 
	C421.955688,107.311996 409.918640,123.998573 397.854858,140.665619 
	C397.287506,141.449478 396.816895,142.303375 396.098022,143.389191 
	C394.955139,144.558258 393.855164,145.346008 393.099030,146.384216 
	C363.785736,186.633835 334.503357,226.905960 305.224213,267.180450 
	C304.933105,267.580902 304.739716,268.052338 304.167419,269.102020 
	C325.373932,279.777527 346.554230,290.439819 368.251617,301.362427 
	C366.527252,302.384521 365.336456,303.177460 364.072174,303.827393 
	C255.440292,359.670563 146.803116,415.503479 38.161598,471.327972 
	C36.685005,472.086700 35.148918,472.729675 33.288975,473.241760 
	C39.945312,463.218292 46.873466,453.321747 53.977623,443.553192 
	C69.349991,422.415497 84.815071,401.345215 100.237099,380.243622 
	C107.454102,370.368774 114.659210,360.485260 122.018837,350.288574 
z"/>
<path fill="#002FFF" opacity="1.000000" stroke="none" 
	d="
M484.945374,19.706217 
	C484.415192,20.008652 484.010101,20.004265 483.301697,19.985786 
	C482.755859,19.516209 482.513367,19.060719 482.148010,18.378206 
	C483.040283,18.567255 484.055389,18.983326 484.945374,19.706217 
z"/>
<path fill="#002FFF" opacity="1.000000" stroke="none" 
	d="
M172.674988,18.095779 
	C172.473389,18.380589 171.957596,18.608120 171.166245,18.900219 
	C171.380737,18.656027 171.870758,18.347265 172.674988,18.095779 
z"/>
<path fill="#21E36A" opacity="1.000000" stroke="none" 
	d="
M32.806854,473.029480 
	C32.959133,473.248596 32.854889,473.559662 32.459732,473.969238 
	C32.295994,473.752319 32.423161,473.436890 32.806854,473.029480 
z"/>
</svg>