<svg class="svg-canvas" viewBox="0 0 800 600" width="1600" height="1200" preserveAspectRatio="none" version="1.1" xmlns="http://www.w3.org/2000/svg" xmlns:xlink="http://www.w3.org/1999/xlink">
        <!--滤镜-->
        <defs></defs>

        <!-- 背景 -->
        <g id="background">
            <rect x="0" y="0" fill="#ffffff" width="800" height="600"></rect>
            
          </g>

        <!--元素-->
        
                <g id="shape_cb63Nwdr8W" ref="shape_cb63Nwdr8W" key="shape_cb63Nwdr8W" mask="">
                  <g transform="translate(150.94535453150002,2.768792760359986) rotate(0,368.5,262.5) scale(1,1)" style="opacity: 1;mix-blend-mode: undefined;" filter="">
                    <!--普通元素-->
                    <svg xmlns="http://www.w3.org/2000/svg" version="1.1" xmlns:xlink="http://www.w3.org/1999/xlink" width="737" height="525" viewBox="0 0 737 525" data-ligature="true" data-parent="shape_cb63Nwdr8W"><g data-role="text" data-width="292" data-height="87" transform="translate(226, 219)"><path d="M7.23-60.95L7.23-60.95L7.88-61.39Q15.04-60.15 17.92-57.56Q20.80-54.97 20.55-52.41Q20.29-49.86 18.18-48.80Q16.06-47.74 13.21-49.57L13.21-49.57Q12.56-52.63 10.80-55.66Q9.05-58.69 7.23-60.95ZM1.90-45.19L1.90-45.19L2.55-45.63Q9.42-44.53 12.12-42.05Q14.82-39.57 14.53-37.12Q14.23-34.67 12.15-33.69Q10.07-32.70 7.37-34.53L7.37-34.53Q6.93-37.45 5.37-40.30Q3.80-43.14 1.90-45.19ZM47.81-26.72L51.32-30.29L53.36-28.83Q51.98-31.83 50.88-35.26L50.88-35.26L40.08-35.26Q38.11-31.24 35.19-27.59L35.19-27.59L37.52-26.72L47.81-26.72ZM36.57-24.60L36.57-15.62L48.47-15.62L48.47-24.60L36.57-24.60ZM47.23-47.60L38.84-47.60L38.84-37.38L47.23-37.38L47.23-47.60ZM69.28-35.26L69.28-35.26L52.56-35.26Q55.99-31.02 61.17-28.07Q66.36-25.11 71.83-23.72L71.83-23.72L71.69-22.92Q66.87-21.68 65.26-15.04L65.26-15.04Q59.93-18.32 56.28-23.72L56.28-23.72L56.28-11.61Q56.21-11.39 55.11-11.02Q54.02-10.66 52.52-10.37Q51.03-10.07 49.79-10.07L49.79-10.07L48.47-10.07L48.47-13.58L36.57-13.58L36.57-4.09Q36.57-3.14 37.19-2.81Q37.81-2.48 40.08-2.48L40.08-2.48L49.20-2.48Q54.38-2.48 56.94-2.63L56.94-2.63Q57.82-2.70 58.33-2.92Q58.84-3.14 59.20-3.65L59.20-3.65Q60.52-5.77 62.63-12.19L62.63-12.19L63.44-12.19L63.66-3.36Q65.41-2.70 66.10-1.93Q66.80-1.17 66.80-0.07L66.80-0.07Q66.80 1.68 65.33 2.81Q63.87 3.94 59.90 4.45Q55.92 4.96 48.47 4.96L48.47 4.96L38.84 4.96Q32.63 4.96 30.51 3.54Q28.40 2.12 28.40-2.34L28.40-2.34L28.40-21.02Q22.99-16.79 16.21-13.58L16.21-13.58L15.62-14.53Q26.06-23.14 30.73-35.26L30.73-35.26L20.44-35.26L19.93-37.08Q19.42-35.26 18.91-33.51L18.91-33.51Q17.52-28.69 16.43-24.78Q15.33-20.88 14.89-19.20L14.89-19.20Q14.02-15.62 13.94-12.63L13.94-12.63Q14.16-10.37 15.11-8.18L15.11-8.18Q16.64-5.11 16.72 0.44L16.72 0.44Q16.57 3.14 14.96 4.78Q13.36 6.42 10.80 6.42L10.80 6.42Q9.64 6.42 8.61 5.55Q7.59 4.67 7.15 2.63L7.15 2.63Q8.18-3.28 7.96-7.63Q7.74-11.97 6.50-12.92L6.50-12.92Q5.11-14.02 2.77-14.16L2.77-14.16L2.77-15.55L6.06-15.55Q6.57-15.55 6.90-15.62Q7.23-15.69 7.52-15.99Q7.81-16.28 8.18-17.01L8.18-17.01Q8.61-17.74 8.98-18.47Q9.34-19.20 10.04-20.66Q10.73-22.12 12.04-25.00Q13.36-27.89 15.59-32.89Q17.81-37.89 21.24-45.63L21.24-45.63L22.41-45.41Q22.12-44.31 21.68-43.00L21.68-43.00Q20.88-40.37 20.07-37.38L20.07-37.38L31.02-37.38L31.02-47.60L21.61-47.60L21.02-49.71L31.02-49.71L31.02-61.47L41.54-60.59Q41.46-59.79 40.88-59.24Q40.30-58.69 38.84-58.47L38.84-58.47L38.84-49.71L47.23-49.71L47.23-61.47L58.11-60.52Q58.03-59.71 57.45-59.20Q56.87-58.69 55.41-58.47L55.41-58.47L55.41-49.71L58.25-49.71L62.49-55.48Q62.49-55.48 63.80-54.38Q65.12-53.29 66.87-51.76Q68.62-50.22 70.08-48.76L70.08-48.76Q69.57-47.60 68.04-47.60L68.04-47.60L55.41-47.60L55.41-37.38L59.13-37.38L63.51-43.36Q63.51-43.36 64.86-42.23Q66.21-41.10 68.00-39.49Q69.79-37.89 71.32-36.43L71.32-36.43Q70.96-35.26 69.28-35.26Z" transform="translate(0 75) " fill="rgb(0, 0, 0)" stroke="rgb(0, 0, 0)" stroke-width="0.122" data-glyph-w="73" data-glyph-h="104.901" data-glyph-ascender="84.023" data-glyph-descender="-20.878" data-kerning="0"></path><path d="M23.58-44.82L23.58-54.38L15.04-54.38L15.04-44.82L23.58-44.82ZM15.04-42.78L15.04-32.92L23.58-32.92L23.58-42.78L15.04-42.78ZM23.58-30.88L15.04-30.88L15.04-26.28Q15.04-25.84 13.36-24.89Q11.68-23.94 8.76-23.94L8.76-23.94L7.37-23.94L7.37-59.79L15.99-56.43L22.85-56.43L26.57-60.59L34.38-54.60Q33.58-53.65 31.39-53.07L31.39-53.07L31.39-28.54Q31.32-28.25 30.26-27.81Q29.20-27.38 27.70-27.01Q26.21-26.64 24.89-26.64L24.89-26.64L23.58-26.64L23.58-30.88ZM25.70-16.50L20.00-16.50L20.00 2.12L25.70 2.12L25.70-16.50ZM39.13 2.12L39.13-16.50L33.43-16.50L33.43 2.12L39.13 2.12ZM52.63 2.12L52.63-16.50L46.87-16.50L46.87 2.12L52.63 2.12ZM45.33-39.86L45.33-39.86L56.65-39.86L56.65-46.43L45.55-46.43L45.55-44.53Q45.55-42.27 45.33-39.86ZM56.65-48.54L56.65-55.19L45.55-55.19L45.55-48.54L56.65-48.54ZM61.03 2.12L61.32 2.12L64.60-3.14Q64.60-3.14 65.70-2.12Q66.80-1.09 68.18 0.33Q69.57 1.75 70.74 3.07L70.74 3.07Q70.37 4.23 68.84 4.23L68.84 4.23L3.07 4.23L2.48 2.12L11.97 2.12L11.97-21.97L20.66-18.61L51.90-18.61L54.75-22.19Q54.60-25.40 53.36-26.94L53.36-26.94Q52.71-27.52 51.50-28.10Q50.30-28.69 47.96-29.05L47.96-29.05L47.96-30.00Q47.96-30.00 48.87-29.97Q49.79-29.93 51.06-29.86Q52.34-29.78 53.55-29.75Q54.75-29.71 55.26-29.71L55.26-29.71Q56.06-29.71 56.36-30.04Q56.65-30.37 56.65-31.02L56.65-31.02L56.65-37.74L45.04-37.74Q44.31-33.00 40.88-28.51Q37.45-24.02 29.78-20.66L29.78-20.66L29.13-21.39Q32.78-24.60 34.57-28.40Q36.35-32.19 36.86-36.32Q37.38-40.44 37.38-44.53L37.38-44.53L37.38-60.66L46.79-57.23L55.92-57.23L59.71-61.54L67.96-55.33Q67.38-54.38 65.19-53.87L65.19-53.87L65.19-30.44Q65.19-28.18 64.60-26.50Q64.02-24.82 62.23-23.76Q60.44-22.70 56.94-22.26L56.94-22.26L64.31-17.15Q63.95-16.64 63.22-16.28Q62.49-15.91 61.03-15.69L61.03-15.69L61.03 2.12Z" transform="translate(73 75) " fill="rgb(0, 0, 0)" stroke="rgb(0, 0, 0)" stroke-width="0.122" data-glyph-w="73" data-glyph-h="104.901" data-glyph-ascender="84.023" data-glyph-descender="-20.878" data-kerning="0"></path><path d="M17.59-41.32L17.59-41.32L20.95-40.15Q20.73-39.13 18.69-38.76L18.69-38.76L18.69 4.01Q18.61 4.38 17.59 4.96Q16.57 5.55 14.96 6.06Q13.36 6.57 11.68 6.57L11.68 6.57L10.07 6.57L10.07-30.88Q6.35-26.57 2.19-23.29L2.19-23.29L1.39-23.87Q5.62-31.02 9.45-41.10Q13.29-51.17 15.40-61.90L15.40-61.90L27.81-58.25Q27.52-56.87 24.89-56.87L24.89-56.87Q21.75-48.33 17.59-41.32ZM43.07-34.82L58.84-34.82L63.36-40.88Q63.36-40.88 64.79-39.71Q66.21-38.54 68.15-36.94Q70.08-35.33 71.69-33.87L71.69-33.87Q71.25-32.70 69.57-32.70L69.57-32.70L42.49-32.70Q40.95-27.01 39.57-22.48L39.57-22.48L53.87-22.48L58.91-27.30L67.31-19.27Q66.87-18.76 66.14-18.54Q65.41-18.32 64.24-18.25L64.24-18.25Q58.91-12.70 51.10-6.86L51.10-6.86Q56.79-3.87 58.55-0.55Q60.30 2.77 58.95 4.85Q57.60 6.93 54.09 6.20L54.09 6.20Q50.00 1.24 42.96-3.39Q35.92-8.03 29.20-10.66L29.20-10.66L29.71-11.46Q41.76-10.88 48.40-8.10L48.40-8.10Q51.68-14.45 54.02-20.37L54.02-20.37L39.49-20.37L36.21-16.57L28.03-21.68Q29.13-22.63 30.81-23.43L30.81-23.43Q32.19-27.38 33.73-32.70L33.73-32.70L20.44-32.70L19.86-34.82L34.31-34.82Q36.06-40.81 37.59-46.87L37.59-46.87L24.67-46.87L24.09-48.98L38.11-48.98Q40.15-57.16 40.95-62.12L40.95-62.12L52.05-59.57Q51.83-58.91 51.17-58.47Q50.52-58.03 49.06-58.03L49.06-58.03Q48.98-57.82 48.98-57.60L48.98-57.60Q48.11-53.95 46.79-48.98L46.79-48.98L55.55-48.98L59.86-54.68Q59.86-54.68 61.21-53.58Q62.56-52.49 64.35-50.99Q66.14-49.49 67.67-48.03L67.67-48.03Q67.31-46.87 65.63-46.87L65.63-46.87L46.28-46.87Q44.82-40.95 43.07-34.82L43.07-34.82Z" transform="translate(146 75) " fill="rgb(0, 0, 0)" stroke="rgb(0, 0, 0)" stroke-width="0.122" data-glyph-w="73" data-glyph-h="104.901" data-glyph-ascender="84.023" data-glyph-descender="-20.878" data-kerning="0"></path><path d="M50.44-61.39L50.44-61.39L51.10-61.76Q56.94-61.03 58.98-59.13Q61.03-57.23 60.48-55.41Q59.93-53.58 57.96-52.92Q55.99-52.27 53.73-53.95L53.73-53.95Q53.51-55.99 52.56-58.00Q51.61-60.01 50.44-61.39ZM11.83-15.77L11.83-15.77L12.92-15.77Q15.04-8.76 13.54-4.27Q12.04 0.22 9.05 1.82L9.05 1.82Q7.08 2.92 5.15 2.55Q3.21 2.19 2.48 0.44L2.48 0.44Q1.90-1.39 2.70-2.77Q3.50-4.16 5.11-4.96L5.11-4.96Q7.59-6.20 9.64-9.09Q11.68-11.97 11.83-15.77ZM32.63-25.91L32.63-34.24L25.55-34.24L25.55-25.91L32.63-25.91ZM32.63-23.80L25.55-23.80L25.55-21.68Q25.55-21.39 24.60-20.84Q23.65-20.29 22.19-19.86Q20.73-19.42 19.20-19.42L19.20-19.42L18.10-19.42L18.10-39.35L25.91-36.28L31.97-36.28L35.41-39.93L42.78-34.53Q42.19-33.65 40.22-33.21L40.22-33.21L40.22-22.85Q40.15-22.56 39.09-22.12Q38.03-21.68 36.61-21.32Q35.19-20.95 33.95-20.95L33.95-20.95L32.63-20.95L32.63-23.80ZM31.02-18.83L31.02-18.83L31.68-19.34Q39.05-17.96 42.19-15.22Q45.33-12.48 45.33-9.82Q45.33-7.15 43.36-5.95Q41.39-4.75 38.54-6.42L38.54-6.42Q37.81-9.78 35.66-13.14Q33.51-16.50 31.02-18.83ZM52.92-11.97L53.73-11.97L53.87-3.65Q55.77-2.99 56.43-2.23Q57.09-1.46 57.09-0.36L57.09-0.36Q57.09 2.34 53.55 3.21Q50.00 4.09 39.13 4.09L39.13 4.09L29.71 4.09Q23.43 4.09 21.43 2.74Q19.42 1.39 19.42-2.77L19.42-2.77L19.42-17.30L30.29-16.35Q30.22-14.96 28.03-14.60L28.03-14.60L28.03-4.09Q28.03-3.36 28.58-3.07Q29.13-2.77 31.17-2.77L31.17-2.77L40.08-2.77Q42.41-2.77 44.35-2.81Q46.28-2.85 47.23-2.92L47.23-2.92Q48.11-2.99 48.54-3.18Q48.98-3.36 49.35-3.87L49.35-3.87Q50.66-5.77 52.92-11.97L52.92-11.97ZM52.49-15.18L52.49-15.18L53.14-15.69Q61.98-13.65 65.81-10.11Q69.64-6.57 69.82-3.21Q70.01 0.15 67.82 1.64Q65.63 3.14 62.41 1.09L62.41 1.09Q61.47-3.36 58.69-7.70Q55.92-12.04 52.49-15.18ZM69.06-32.56L69.86-32.34L68.69-22.63Q70.59-20.22 70.99-18.76Q71.39-17.30 70.66-16.43L70.66-16.43Q68.55-14.09 65.19-14.82Q61.83-15.55 59.13-17.45L59.13-17.45Q54.68-20.51 51.39-24.45L51.39-24.45Q46.28-20.51 40.15-18.25L40.15-18.25L39.42-19.05Q44.38-22.63 48.54-28.18L48.54-28.18Q44.46-34.46 42.41-41.83L42.41-41.83Q41.90-41.17 40.66-41.17L40.66-41.17L17.15-41.17L16.57-43.29L31.32-43.29L35.26-48.33Q35.26-48.33 36.39-47.45Q37.52-46.57 39.09-45.30Q40.66-44.02 42.12-42.78L42.12-42.78Q41.24-46.43 40.66-50.22L40.66-50.22L16.21-50.22L16.21-41.46Q16.21-37.01 15.44-31.50Q14.67-25.99 11.86-20.66Q9.05-15.33 3.14-11.17L3.14-11.17L2.48-11.83Q5.11-16.35 6.35-21.39Q7.59-26.43 7.92-31.57Q8.25-36.72 8.25-41.39L8.25-41.39L8.25-55.63L17.45-52.34L40.37-52.34Q39.86-57.16 39.71-62.05L39.71-62.05L50.44-61.17Q50.44-59.79 48.03-59.20L48.03-59.20Q48.18-55.77 48.47-52.34L48.47-52.34L60.44-52.34L64.24-57.60Q64.24-57.60 65.41-56.57Q66.58-55.55 68.15-54.13Q69.71-52.71 71.03-51.39L71.03-51.39Q70.59-50.22 69.06-50.22L69.06-50.22L48.76-50.22Q49.86-42.41 53.29-35.84L53.29-35.84Q56.21-41.46 57.67-48.18L57.67-48.18L68.18-44.31Q67.67-43.00 65.19-43.07L65.19-43.07Q61.90-35.33 57.23-30.00L57.23-30.00Q59.79-27.01 63.14-24.82L63.14-24.82Q63.95-24.24 64.50-24.31Q65.04-24.38 65.48-25.11L65.48-25.11Q66.21-26.35 67.23-28.40Q68.25-30.44 69.06-32.56L69.06-32.56Z" transform="translate(219 75) " fill="rgb(0, 0, 0)" stroke="rgb(0, 0, 0)" stroke-width="0.122" data-glyph-w="73" data-glyph-h="104.901" data-glyph-ascender="84.023" data-glyph-descender="-20.878" data-kerning="0"></path></g></svg>
                  </g>
                </g>
                <g id="shape_aiiVK3WY4j" ref="shape_aiiVK3WY4j" key="shape_aiiVK3WY4j" mask="">
                  <g transform="translate(210.94535453150002,149.76879276036) rotate(0,309.70833333333496,190.5) scale(1,1)" style="opacity: 1;mix-blend-mode: undefined;" filter="">
                    <!--普通元素-->
                    <svg xmlns="http://www.w3.org/2000/svg" version="1.1" xmlns:xlink="http://www.w3.org/1999/xlink" width="619.4166666666699" height="381" viewBox="0 0 619.4166666666699 381" data-ligature="true" data-parent="shape_aiiVK3WY4j"><g data-role="text" data-width="292.87800000000004" data-height="63" transform="translate(163.26933333333497, 159)"><path d="M22.74-19.08L39.38-19.08L39.38-17.22L35.88-16.80Q35.77-11.39 35.77-5.09L35.77-5.09L35.77-2.49Q32.75-0.74 29.71 0.13Q26.66 1.01 22.95 1.01L22.95 1.01Q13.83 1.01 8.19-4.61Q2.54-10.23 2.54-19.72L2.54-19.72Q2.54-29.04 8.29-34.66Q14.04-40.28 23.27-40.28L23.27-40.28Q26.77-40.28 29.57-39.54Q32.38-38.80 34.82-37.37L34.82-37.37L34.71-28.20L31.59-28.20L29.36-36.99Q27.08-38.11 24.22-38.11L24.22-38.11Q20.25-38.11 17.15-36.04Q14.04-33.97 12.24-29.87Q10.44-25.76 10.44-19.66L10.44-19.66Q10.44-11.02 14.23-6.09Q18.02-1.17 23.90-1.17L23.90-1.17Q26.55-1.17 28.73-1.80L28.73-1.80L28.73-5.25Q28.73-11.08 28.57-16.64L28.57-16.64L22.74-17.22L22.74-19.08Z" transform="translate(0 54) " fill="rgb(0, 0, 0)" stroke="rgb(0, 0, 0)" stroke-width="0.088" data-glyph-w="40.121" data-glyph-h="76.161" data-glyph-ascender="61.003" data-glyph-descender="-15.158" data-kerning="0"></path><path d="M50.72-39.33L50.72-37.42L45.63-36.94Q45.58-28.88 45.58-20.93L45.58-20.93L45.58-18.34Q45.58-10.33 45.63-2.33L45.63-2.33L50.72-1.85L50.72 0L33.23 0L33.23-1.85L38.11-2.33Q38.21-6.73 38.21-10.97L38.21-10.97Q38.21-14.36 38.27-17.49L38.27-17.49L38.37-34.19L25.44 0L22.84 0L9.54-33.97Q9.65-29.79 9.73-25.44Q9.80-21.09 9.80-19.40L9.80-19.40L9.80-2.49L15.37-1.85L15.37 0L1.59 0L1.59-1.85L7.21-2.49L7.42-36.73L1.85-37.42L1.85-39.33L14.79-39.33L26.55-9.43L38.00-39.33L50.72-39.33Z" transform="translate(40.121 54) " fill="rgb(0, 0, 0)" stroke="rgb(0, 0, 0)" stroke-width="0.088" data-glyph-w="53.106" data-glyph-h="76.161" data-glyph-ascender="61.003" data-glyph-descender="-15.158" data-kerning="0"></path><path d="M0,0Z" transform="translate(93.227 54) " fill="rgb(0, 0, 0)" stroke="rgb(0, 0, 0)" stroke-width="0.088" data-glyph-w="21.2" data-glyph-h="76.161" data-glyph-ascender="61.003" data-glyph-descender="-15.158" data-kerning="0"></path><path d="M13.78-17.86L13.78-17.86L16.54-17.01Q20.67-15.63 22.52-13.49Q24.38-11.34 24.38-8.27L24.38-8.27Q24.38-4.24 21.23-1.70Q18.07 0.85 12.24 0.85L12.24 0.85Q9.38 0.85 7.02 0.24Q4.66-0.37 2.44-1.59L2.44-1.59L2.65-8.48L5.72-8.48L7.21-2.07Q9.22-1.22 11.82-1.22L11.82-1.22Q18.18-1.22 18.29-5.78L18.29-5.78Q18.29-7.53 17.15-8.74Q16.01-9.96 12.93-10.97L12.93-10.97L10.02-11.92Q6.57-12.98 4.61-14.97Q2.65-16.96 2.65-20.19L2.65-20.19Q2.65-24.01 5.54-26.61Q8.43-29.20 13.89-29.20L13.89-29.20Q16.43-29.20 18.52-28.59Q20.62-27.98 22.79-26.82L22.79-26.82L22.42-20.46L19.72-20.46L18.07-26.18Q16.38-27.14 14.04-27.14L14.04-27.14Q8.80-27.14 8.53-22.84L8.53-22.84Q8.53-21.20 9.65-20.01Q10.76-18.81 13.78-17.86Z" transform="translate(114.427 54) " fill="rgb(0, 0, 0)" stroke="rgb(0, 0, 0)" stroke-width="0.088" data-glyph-w="26.340999999999998" data-glyph-h="76.161" data-glyph-ascender="61.003" data-glyph-descender="-15.158" data-kerning="0"></path><path d="M9.54-16.27L9.54-16.27L18.60-16.27Q20.46-16.27 21.04-17.22Q21.62-18.18 21.62-20.19L21.62-20.19Q21.62-23.43 20.09-25.33Q18.55-27.24 16.11-27.24L16.11-27.24Q13.62-27.24 11.74-24.64Q9.86-22.05 9.54-16.27ZM27.88-14.31L27.88-14.31L9.54-14.31Q9.80-8.27 12.43-5.46Q15.05-2.65 18.92-2.65L18.92-2.65Q21.78-2.65 23.64-3.74Q25.49-4.82 26.87-6.73L26.87-6.73L27.93-5.99Q24.43 0.85 16.54 0.85L16.54 0.85Q10.28 0.85 6.23-3.07Q2.17-7.00 2.17-14.20L2.17-14.20Q2.17-18.97 4.24-22.34Q6.31-25.70 9.59-27.45Q12.88-29.20 16.59-29.20L16.59-29.20Q22.05-29.20 25.15-25.92Q28.25-22.63 28.25-17.60L28.25-17.60Q28.25-15.53 27.88-14.31Z" transform="translate(140.768 54) " fill="rgb(0, 0, 0)" stroke="rgb(0, 0, 0)" stroke-width="0.088" data-glyph-w="30.369" data-glyph-h="76.161" data-glyph-ascender="61.003" data-glyph-descender="-15.158" data-kerning="0"></path><path d="M31.11-2.07L31.11-2.07L34.71-1.64L34.71 0L20.19 0L20.19-1.64L23.90-2.12Q24.01-4.45 24.04-7.31Q24.06-10.18 24.06-12.46L24.06-12.46L24.06-19.24Q24.06-22.68 23.05-24.06Q22.05-25.44 19.88-25.44L19.88-25.44Q16.96-25.44 12.93-22.00L12.93-22.00L12.93-12.46Q12.93-10.28 12.96-7.37Q12.98-4.45 13.04-2.07L13.04-2.07L16.48-1.64L16.48 0L1.96 0L1.96-1.64L5.83-2.12Q5.88-4.45 5.91-7.37Q5.94-10.28 5.94-12.46L5.94-12.46L5.94-16.27Q5.94-18.87 5.88-20.59Q5.83-22.31 5.72-24.17L5.72-24.17L1.54-24.59L1.54-25.92L11.71-29.15L12.46-28.67L12.83-23.85Q15.32-26.71 17.81-27.96Q20.30-29.20 22.90-29.20L22.90-29.20Q26.66-29.20 28.83-26.74Q31.00-24.27 31.00-18.92L31.00-18.92L31.00-12.46Q31.00-10.18 31.03-7.29Q31.06-4.40 31.11-2.07Z" transform="translate(171.137 54) " fill="rgb(0, 0, 0)" stroke="rgb(0, 0, 0)" stroke-width="0.088" data-glyph-w="36.146" data-glyph-h="76.161" data-glyph-ascender="61.003" data-glyph-descender="-15.158" data-kerning="0"></path><path d="M13.78-17.86L13.78-17.86L16.54-17.01Q20.67-15.63 22.52-13.49Q24.38-11.34 24.38-8.27L24.38-8.27Q24.38-4.24 21.23-1.70Q18.07 0.85 12.24 0.85L12.24 0.85Q9.38 0.85 7.02 0.24Q4.66-0.37 2.44-1.59L2.44-1.59L2.65-8.48L5.72-8.48L7.21-2.07Q9.22-1.22 11.82-1.22L11.82-1.22Q18.18-1.22 18.29-5.78L18.29-5.78Q18.29-7.53 17.15-8.74Q16.01-9.96 12.93-10.97L12.93-10.97L10.02-11.92Q6.57-12.98 4.61-14.97Q2.65-16.96 2.65-20.19L2.65-20.19Q2.65-24.01 5.54-26.61Q8.43-29.20 13.89-29.20L13.89-29.20Q16.43-29.20 18.52-28.59Q20.62-27.98 22.79-26.82L22.79-26.82L22.42-20.46L19.72-20.46L18.07-26.18Q16.38-27.14 14.04-27.14L14.04-27.14Q8.80-27.14 8.53-22.84L8.53-22.84Q8.53-21.20 9.65-20.01Q10.76-18.81 13.78-17.86Z" transform="translate(207.28300000000002 54) " fill="rgb(0, 0, 0)" stroke="rgb(0, 0, 0)" stroke-width="0.088" data-glyph-w="26.340999999999998" data-glyph-h="76.161" data-glyph-ascender="61.003" data-glyph-descender="-15.158" data-kerning="0"></path><path d="M16.48 0.85L16.48 0.85Q10.33 0.85 6.25-3.15Q2.17-7.15 2.17-14.26L2.17-14.26Q2.17-19.03 4.13-22.37Q6.09-25.70 9.35-27.45Q12.61-29.20 16.48-29.20L16.48-29.20Q20.35-29.20 23.59-27.45Q26.82-25.70 28.81-22.37Q30.79-19.03 30.79-14.26L30.79-14.26Q30.79-9.49 28.91-6.12Q27.03-2.76 23.80-0.95Q20.56 0.85 16.48 0.85ZM16.48-1.11L16.48-1.11Q19.72-1.11 21.52-4.37Q23.32-7.63 23.32-14.20L23.32-14.20Q23.32-20.78 21.52-24.01Q19.72-27.24 16.48-27.24L16.48-27.24Q13.20-27.24 11.42-24.01Q9.65-20.78 9.65-14.20L9.65-14.20Q9.65-7.63 11.42-4.37Q13.20-1.11 16.48-1.11Z" transform="translate(233.62400000000002 54) " fill="rgb(0, 0, 0)" stroke="rgb(0, 0, 0)" stroke-width="0.088" data-glyph-w="32.913" data-glyph-h="76.161" data-glyph-ascender="61.003" data-glyph-descender="-15.158" data-kerning="0"></path><path d="M11.71-29.15L12.46-28.67L12.93-21.31Q14.26-25.12 16.62-27.16Q18.97-29.20 21.36-29.20L21.36-29.20Q23.05-29.20 24.33-28.43Q25.60-27.67 26.13-25.81L26.13-25.81Q26.02-24.01 25.18-22.90Q24.33-21.78 22.47-21.78L22.47-21.78Q21.15-21.78 20.19-22.47Q19.24-23.16 18.29-24.33L18.29-24.33L17.70-24.96Q14.47-22.52 12.93-17.17L12.93-17.17L12.93-12.46Q12.93-10.33 12.96-7.47Q12.98-4.61 13.04-2.28L13.04-2.28L17.91-1.64L17.91 0L1.96 0L1.96-1.64L5.83-2.12Q5.88-4.45 5.91-7.37Q5.94-10.28 5.94-12.46L5.94-12.46L5.94-16.27Q5.94-18.87 5.88-20.59Q5.83-22.31 5.72-24.17L5.72-24.17L1.54-24.59L1.54-25.92L11.71-29.15Z" transform="translate(266.53700000000003 54) " fill="rgb(0, 0, 0)" stroke="rgb(0, 0, 0)" stroke-width="0.088" data-glyph-w="26.340999999999998" data-glyph-h="76.161" data-glyph-ascender="61.003" data-glyph-descender="-15.158" data-kerning="0"></path></g></svg>
                  </g>
                </g>
                <g id="shape_XR9epTTSXe" ref="shape_XR9epTTSXe" key="shape_XR9epTTSXe" mask="">
                  <g transform="translate(120,194.83761419598) rotate(0,124.97267726575,113.93117856438) scale(1,1)" style="opacity: 1;mix-blend-mode: undefined;" filter="">
                    <!--普通元素-->
                    <svg version="1.1" id="图层_1" xmlns="http://www.w3.org/2000/svg" xmlns:xlink="http://www.w3.org/1999/xlink" x="0px" y="0px" width="249.9453545315" height="227.86235712876" viewBox="0 0 190.15 173.35" style="enable-background:new 0 0 190.15 173.35;" xml:space="preserve" class="style-removed" preserveAspectRatio="none" data-parent="shape_XR9epTTSXe">

<g>
	<path d="M181.39,0H65.04C29.12,0,0,29.12,0,65.04l0,1.64c0.46,28.25,27.76,59.25,54.16,61.66L181.39,0z" fill="#0233f2" stroke-width="0"></path>
	<path d="M8.77,173.35h116.35c35.92,0,65.04-29.12,65.04-65.04v-1.64C189.7,78.42,162.4,47.42,136,45.01L8.77,173.35z" fill="#0233f2" stroke-width="0"></path>
	<polygon points="181.39,0 41.46,76.99 68.99,90.81 8.77,173.35 136.78,107.6 112.17,95.25 	" fill="#21e36a" stroke-width="0"></polygon>
</g>
</svg>
                  </g>
                </g>
      </svg>